<svg width="16" height="16" viewBox="0 0 16 16" fill="none" xmlns="http://www.w3.org/2000/svg">
<path d="M11.6666 8.00125C13.6917 8.00125 15.3333 9.64285 15.3333 11.6679C15.3333 13.6929 13.6917 15.3346 11.6666 15.3346C9.64158 15.3346 7.99998 13.6929 7.99998 11.6679C7.99998 9.64285 9.64158 8.00125 11.6666 8.00125ZM11.6666 9.33405L11.6067 9.33938C11.4706 9.36412 11.3634 9.47138 11.3387 9.60745L11.3333 9.66738L11.333 11.334L9.66511 11.3346L9.60518 11.3399C9.46911 11.3646 9.36178 11.4719 9.33711 11.608L9.33178 11.6679L9.33711 11.7278C9.36178 11.8638 9.46911 11.9712 9.60518 11.9958L9.66511 12.0012L11.3338 12.0007L11.334 13.6702L11.3394 13.7301C11.3641 13.8662 11.4714 13.9734 11.6074 13.9982L11.6674 14.0035L11.7273 13.9982C11.8634 13.9734 11.9706 13.8662 11.9954 13.7301L12.0007 13.6702L12.0004 12.0007L13.6697 12.0012L13.7296 11.9958C13.8656 11.9712 13.973 11.8638 13.9976 11.7278L14.003 11.6679L13.9976 11.608C13.973 11.4719 13.8656 11.3646 13.7296 11.3399L13.6697 11.3346L11.9997 11.334L12 9.66738L11.9946 9.60745C11.9699 9.47138 11.8626 9.36412 11.7266 9.33938L11.6666 9.33405ZM9.28311 1.66992C9.81498 1.66992 10.3071 1.95157 10.5764 2.41017L11.1195 3.33456H12.5C13.6966 3.33456 14.6666 4.3046 14.6666 5.50122L14.6672 8.54145C14.371 8.25718 14.0346 8.01458 13.6674 7.82305L13.6666 5.50122C13.6666 4.85689 13.1443 4.33456 12.5 4.33456H10.8333C10.656 4.33456 10.492 4.24067 10.4022 4.0878L9.71425 2.91667C9.62445 2.7638 9.46038 2.66992 9.28311 2.66992H6.74825C6.59926 2.66992 6.45945 2.73623 6.36527 2.84845L6.32215 2.90829L5.59273 4.09619C5.50179 4.2443 5.34045 4.33456 5.16665 4.33456H3.49998C2.85565 4.33456 2.33331 4.85689 2.33331 5.50122V11.8346C2.33331 12.4789 2.85565 13.0012 3.49998 13.0012L7.54218 13.0008C7.65711 13.3566 7.81678 13.6924 8.01458 14.0014L3.49998 14.0012C2.30336 14.0012 1.33331 13.0312 1.33331 11.8346V5.50122C1.33331 4.3046 2.30336 3.33456 3.49998 3.33456H4.88693L5.46998 2.38502C5.74281 1.94069 6.22682 1.66992 6.74825 1.66992H9.28311ZM7.99998 5.33456C9.33451 5.33456 10.4655 6.20592 10.855 7.41072C10.5214 7.47365 10.2014 7.57505 9.89978 7.70992C9.63805 6.91118 8.88638 6.33456 7.99998 6.33456C6.89538 6.33456 5.99998 7.22998 5.99998 8.33458C5.99998 9.28745 6.66641 10.0847 7.55865 10.2857C7.45371 10.5968 7.38318 10.9249 7.35185 11.2643C6.00661 10.9682 4.99998 9.76892 4.99998 8.33458C4.99998 6.67772 6.34313 5.33456 7.99998 5.33456Z" fill="white"/>
</svg>
