<svg width="20" height="21" viewBox="0 0 20 21" fill="none" xmlns="http://www.w3.org/2000/svg">
<path d="M10 0C15.5228 0 20 4.47715 20 10C20 15.5228 15.5228 20 10 20C8.3817 20 6.81782 19.6146 5.41286 18.888L1.58704 19.9553C0.92212 20.141 0.23258 19.7525 0.04691 19.0876C-0.01454 18.8676 -0.0145099 18.6349 0.0469501 18.4151L1.11461 14.5922C0.38637 13.186 0 11.6203 0 10C0 4.47715 4.47715 0 10 0ZM10 1.5C5.30558 1.5 1.5 5.30558 1.5 10C1.5 11.4696 1.87277 12.8834 2.57303 14.1375L2.72368 14.4072L1.61096 18.3914L5.59755 17.2792L5.86709 17.4295C7.12006 18.1281 8.5322 18.5 10 18.5C14.6944 18.5 18.5 14.6944 18.5 10C18.5 5.30558 14.6944 1.5 10 1.5Z" fill="#212121"/>
</svg>
