<svg width="197" height="104" viewBox="0 0 197 104" fill="none" xmlns="http://www.w3.org/2000/svg">
<rect width="197" height="104" fill="#7B2EF0"/>
<path d="M130.342 62.0727L138 31.7182L120.291 11L89.6581 14.3727L82 44.2455L98.7521 64L130.342 62.0727Z" fill="#7B2EF0" stroke="white" stroke-width="2"/>
<path d="M120.02 11L112.416 41.3113M112.416 41.3113L130 62M112.416 41.3113L82 44.1981" stroke="white" stroke-width="2"/>
<circle cx="111.5" cy="19.5" r="3.5" fill="white"/>
<circle cx="123.5" cy="25.5" r="3.5" fill="white"/>
<circle cx="125.5" cy="37.5" r="3.5" fill="white"/>
<circle cx="127.5" cy="49.5" r="3.5" fill="white"/>
<circle cx="107.5" cy="35.5" r="3.5" fill="white"/>
<circle cx="95.5" cy="20.5" r="3.5" fill="white"/>
<path d="M56 77L48 45.5L66.5 24L98.5 27.5L106.5 58.5L89 79L56 77Z" fill="#7B2EF0" stroke="white" stroke-width="2"/>
<path d="M66.5 24L74.5 55.5M74.5 55.5L56 77M74.5 55.5L106.5 58.5" stroke="white" stroke-width="2"/>
<circle cx="59.5" cy="61.5" r="3.5" fill="white"/>
<circle cx="79.5" cy="49.5" r="3.5" fill="white"/>
<circle cx="96.5" cy="51.5" r="3.5" fill="white"/>
<circle cx="75.5" cy="32.5" r="3.5" fill="white"/>
<circle cx="91.5" cy="33.5" r="3.5" fill="white"/>
<circle cx="82.5" cy="67.5" r="3.5" fill="white"/>
<circle cx="62.5" cy="38.5" r="3.5" fill="white"/>
</svg>
