<svg width="28" height="24" viewBox="0 0 28 24" fill="none" xmlns="http://www.w3.org/2000/svg">
<path d="M15.0932 2.10289L13.9989 3.19957L12.9012 2.1019C10.1025 -0.696857 5.56481 -0.696857 2.76606 2.1019C-0.0326979 4.90065 -0.0326979 9.43833 2.76606 12.2371L13.2932 22.7642C13.6837 23.1547 14.3169 23.1547 14.7075 22.7642L25.2427 12.2351C28.0352 9.42713 28.04 4.90216 25.2408 2.10289C22.4369 -0.700963 17.8971 -0.700963 15.0932 2.10289ZM23.8245 10.8249L14.0003 20.643L4.18028 10.8229C2.16256 8.80513 2.16256 5.53382 4.18028 3.51612C6.19798 1.4984 9.46933 1.4984 11.4871 3.51612L13.2969 5.32604C13.6941 5.7232 14.3404 5.71545 14.7279 5.3089L16.5075 3.5171C18.5303 1.4943 21.8037 1.4943 23.8265 3.5171C25.8448 5.5353 25.8413 8.797 23.8245 10.8249Z" fill="#3A3A3A"/>
</svg>
