<svg width="16" height="4" viewBox="0 0 16 4" fill="none" xmlns="http://www.w3.org/2000/svg">
<path d="M3.75 2.26781C3.75 3.18373 2.9665 3.92624 2 3.92624C1.0335 3.92624 0.25 3.18373 0.25 2.26781C0.25 1.35188 1.0335 0.609375 2 0.609375C2.9665 0.609375 3.75 1.35188 3.75 2.26781ZM9.75 2.26781C9.75 3.18373 8.9665 3.92624 8 3.92624C7.0335 3.92624 6.25 3.18373 6.25 2.26781C6.25 1.35188 7.0335 0.609375 8 0.609375C8.9665 0.609375 9.75 1.35188 9.75 2.26781ZM14 3.92624C14.9665 3.92624 15.75 3.18373 15.75 2.26781C15.75 1.35188 14.9665 0.609375 14 0.609375C13.0335 0.609375 12.25 1.35188 12.25 2.26781C12.25 3.18373 13.0335 3.92624 14 3.92624Z" fill="#212121"/>
</svg>
