<svg width="36" height="36" viewBox="0 0 36 36" fill="none" xmlns="http://www.w3.org/2000/svg">
<path d="M13.8051 5.99992L13.8756 5.99805L13.9443 5.99986C13.9779 6.0018 14.0116 6.00529 14.0453 6.01039L14.0695 6.01611C14.1976 6.03669 14.3249 6.08245 14.4462 6.15433L14.524 6.20464L22.1295 11.5525L29.73 6.20967C30.4317 5.71648 31.3823 6.15976 31.4916 6.97327L31.5021 7.13001V23.0788C31.5021 23.3927 31.371 23.6899 31.1448 23.9011L31.0241 23.9992L22.7741 29.7988C22.3737 30.0802 21.8922 30.0566 21.5324 29.8334L13.875 24.4465L6.27053 29.7937C5.56895 30.2869 4.61834 29.8436 4.50893 29.03L4.49854 28.8734V12.9246C4.49854 12.6106 4.62957 12.3135 4.85571 12.1023L4.97655 12.0042L13.2266 6.20464C13.3226 6.13716 13.4232 6.08721 13.5258 6.05334L13.7095 6.01132L13.8051 5.99992ZM29.2521 9.29602L23.2521 13.5139V26.7124L29.2521 22.4945V9.29602ZM12.7485 9.291L6.74854 13.5089V26.7073L12.7485 22.4894V9.291ZM15.0021 9.291V22.4894L21.0021 26.7073V13.5089L15.0021 9.291Z" fill="#AAAAAA"/>
</svg>
