<svg width="16" height="16" viewBox="0 0 16 16" fill="none" xmlns="http://www.w3.org/2000/svg">
<path d="M13.9679 2.03077C13.0361 1.09908 11.5256 1.09913 10.594 2.03087L2.62727 9.99846C2.35638 10.2694 2.16598 10.6102 2.07725 10.9829L1.34686 14.0505C1.30664 14.2194 1.35693 14.3971 1.4797 14.5199C1.60248 14.6427 1.78016 14.6929 1.94907 14.6527L5.01657 13.9223C5.38937 13.8336 5.73022 13.6431 6.00119 13.3721L12.6663 6.70626C13.1184 7.16219 13.1173 7.89826 12.6628 8.35273L11.4739 9.54166C11.2786 9.73693 11.2786 10.0535 11.4739 10.2488C11.6691 10.4441 11.9857 10.4441 12.1809 10.2488L13.3699 9.05986C14.2149 8.21486 14.2161 6.84559 13.3733 5.99913L13.9679 5.40444C14.8995 4.47278 14.8995 2.96237 13.9679 2.03077ZM11.3011 2.73793C11.8422 2.19676 12.7196 2.19673 13.2607 2.73787C13.8018 3.27897 13.8019 4.15625 13.2608 4.69737L5.29404 12.6651C5.15394 12.8052 4.9777 12.9037 4.78495 12.9495L2.50786 13.4917L3.05006 11.2145C3.09593 11.0218 3.19437 10.8456 3.33442 10.7055L11.3011 2.73793Z" fill="white"/>
</svg>
