<svg width="25" height="25" viewBox="0 0 25 25" fill="none" xmlns="http://www.w3.org/2000/svg">
<path d="M10.3334 0.666504C15.6722 0.666504 20.0001 4.99442 20.0001 10.3332C20.0001 12.6424 19.1903 14.7624 17.8394 16.4249L24.3738 22.9594C24.7643 23.35 24.7643 23.983 24.3738 24.3736C24.0189 24.7286 23.4633 24.7609 23.0718 24.4704L22.9597 24.3736L16.4251 17.8392C14.7626 19.1901 12.6426 19.9998 10.3334 19.9998C4.99467 19.9998 0.666748 15.672 0.666748 10.3332C0.666748 4.99442 4.99467 0.666504 10.3334 0.666504ZM10.3334 2.6665C6.09923 2.6665 2.66675 6.09898 2.66675 10.3332C2.66675 14.5673 6.09923 17.9998 10.3334 17.9998C14.5675 17.9998 18.0001 14.5673 18.0001 10.3332C18.0001 6.09898 14.5675 2.6665 10.3334 2.6665Z" fill="#222222"/>
</svg>
